<svg width="96" height="96" viewBox="0 0 96 96" fill="none" xmlns="http://www.w3.org/2000/svg">
<circle cx="48" cy="48" r="48" fill="#EAF586"/>
<g clip-path="url(#clip0_102_23)">
<path d="M48 73C47.6362 73 47.2724 72.8646 46.9939 72.5881L25.536 51.288C19.488 45.2845 19.488 35.5118 25.536 29.5083C28.4634 26.6024 32.3627 25 36.5065 25C40.6503 25 44.544 26.6024 47.4714 29.5083L48 30.033L48.5286 29.5083C51.456 26.5968 55.3554 25 59.4935 25C63.6316 25 67.5366 26.6024 70.464 29.5083C76.512 35.5118 76.512 45.2788 70.464 51.2824L49.0061 72.5825C48.7276 72.8589 48.3638 72.9944 48 72.9944V73ZM36.5065 27.8212C33.1187 27.8212 29.9413 29.1302 27.5482 31.5057C22.6086 36.409 22.6086 44.3873 27.5482 49.2906L48 69.592L68.4518 49.2906C73.3914 44.3873 73.3914 36.409 68.4518 31.5057C66.0587 29.1302 62.8756 27.8212 59.4935 27.8212C56.1114 27.8212 52.9339 29.1302 50.5352 31.5057L49.0004 33.0292C48.4434 33.5821 47.5453 33.5821 46.9882 33.0292L45.4535 31.5057C43.0604 29.1302 39.8773 27.8212 36.4952 27.8212H36.5065Z" fill="#1E1E1E"/>
</g>
<defs>
<clipPath id="clip0_102_23">
<rect width="54" height="48" fill="white" transform="translate(21 25)"/>
</clipPath>
</defs>
</svg>
