<svg width="33" height="33" viewBox="0 0 33 33" fill="none" xmlns="http://www.w3.org/2000/svg">
<g clip-path="url(#clip0_5_1449)">
<path d="M25.1204 16.4242C25.106 18.1083 24.5768 19.7477 23.6038 21.1224C22.6308 22.497 21.2606 23.5411 19.6771 24.1146C18.0653 24.6828 16.3189 24.7476 14.6694 24.3004C13.0199 23.8533 11.5454 22.9152 10.4413 21.6108C9.37117 20.3059 8.73103 18.7018 8.6087 17.0187C8.48636 15.3356 8.88782 13.6558 9.75799 12.2099C10.6961 10.6768 12.107 9.49011 13.7782 8.82853C15.4493 8.16695 17.2902 8.06633 19.0235 8.54182C20.7568 9.01731 22.2887 10.0432 23.3883 11.4649C24.488 12.8865 25.0959 14.6271 25.1204 16.4242C25.1204 17.5753 26.9181 17.5799 26.9089 16.4242C26.8802 14.3709 26.2257 12.3753 25.0327 10.7039C23.8396 9.03248 22.165 7.76493 20.2325 7.07057C18.2999 6.37621 16.2015 6.28811 14.2176 6.81804C12.2336 7.34798 10.4586 8.4707 9.12974 10.0362C7.8055 11.6236 7.00617 13.5826 6.84191 15.6433C6.67764 17.704 7.15653 19.7649 8.21258 21.542C9.29938 23.3016 10.8953 24.6894 12.7887 25.5215C14.6821 26.3536 16.7837 26.5906 18.8149 26.2012C21.0795 25.7445 23.1188 24.5245 24.592 22.745C26.0652 20.9655 26.8831 18.7343 26.9089 16.4242C26.9181 15.2732 25.1296 15.2732 25.1204 16.4242Z" fill="#1A1A1A"/>
<path d="M20.7641 16.4241C20.7569 17.2176 20.5089 17.9903 20.0527 18.6397C19.5966 19.2891 18.9539 19.7846 18.2098 20.0606C17.4346 20.3379 16.5928 20.3701 15.7987 20.1527C15.0046 19.9353 14.2966 19.4789 13.7708 18.8454C13.2784 18.2274 12.9865 17.4738 12.9341 16.6855C12.8816 15.8971 13.0712 15.1116 13.4773 14.4338C13.9206 13.7053 14.589 13.1408 15.3814 12.8255C16.1737 12.5102 17.0472 12.4611 17.8699 12.6858C18.6926 12.9105 19.4199 13.3968 19.942 14.0711C20.464 14.7454 20.7526 15.5713 20.7641 16.4241C20.7641 17.5751 22.5663 17.5797 22.5526 16.4241C22.5421 15.2563 22.1743 14.1197 21.4987 13.1671C20.8231 12.2145 19.8721 11.4917 18.7734 11.0957C17.6748 10.6996 16.4812 10.6495 15.3533 10.952C14.2253 11.2544 13.2169 11.895 12.4638 12.7875C11.7118 13.6877 11.2565 14.7985 11.1605 15.9676C11.0644 17.1366 11.3322 18.3068 11.9273 19.3177C12.5426 20.3163 13.4458 21.1052 14.5181 21.5808C15.5903 22.0564 16.7814 22.1962 17.9347 21.982C19.2262 21.7273 20.3907 21.0357 21.2325 20.0236C22.0743 19.0114 22.542 17.7404 22.5571 16.4241C22.5709 15.273 20.7641 15.273 20.7641 16.4241Z" fill="#1A1A1A"/>
<path d="M26.3633 7.0416C26.3633 7.11498 26.3633 7.18376 26.3633 7.25255L26.3954 7.01409C26.3864 7.09693 26.3679 7.17846 26.3404 7.25714C26.3404 7.28924 26.3404 7.32134 26.3083 7.35344C26.2762 7.45432 26.4092 7.14708 26.3404 7.27089C26.3404 7.29841 26.2487 7.47725 26.2166 7.47725C26.1845 7.47725 26.3817 7.28924 26.267 7.40847C26.2395 7.43598 26.2166 7.46808 26.1845 7.4956L26.1111 7.56438C26.0011 7.67444 26.2991 7.44057 26.1662 7.52311L25.9735 7.63776C25.836 7.71572 26.0515 7.63776 26.0607 7.61024C26.0226 7.62727 25.9825 7.63959 25.9414 7.64693C25.8628 7.67441 25.7812 7.69288 25.6984 7.70196L25.9323 7.66986C25.7907 7.68819 25.6474 7.68819 25.5058 7.66986L25.7443 7.70196C25.66 7.6924 25.577 7.67396 25.4966 7.64693L25.4003 7.61483C25.2994 7.58273 25.6067 7.71572 25.4829 7.64693C25.41 7.61011 25.3396 7.56876 25.2719 7.52311C25.1573 7.44974 25.4141 7.65151 25.3453 7.57814L25.2536 7.4956L25.1848 7.42222C25.1206 7.35344 25.1206 7.28465 25.2261 7.47725C25.1894 7.41305 25.1435 7.35344 25.1068 7.28924C25.0289 7.15166 25.1068 7.36719 25.1389 7.37637C25.1204 7.33843 25.1066 7.2984 25.0977 7.25714C25.0745 7.17729 25.0561 7.09613 25.0426 7.01409L25.0747 7.25255C25.0564 7.11252 25.0564 6.97069 25.0747 6.83066L25.0426 7.06912C25.0561 6.98708 25.0745 6.90591 25.0977 6.82607C25.0977 6.79397 25.1206 6.76187 25.1298 6.72977C25.1389 6.69767 25.0289 6.93613 25.0977 6.81231C25.0977 6.7848 25.1894 6.60595 25.2261 6.60595C25.2627 6.60595 25.061 6.79397 25.171 6.67474L25.2536 6.58761L25.327 6.51882C25.437 6.40876 25.1435 6.64264 25.2719 6.56009L25.4645 6.44545C25.6067 6.36749 25.3912 6.44545 25.382 6.47296C25.3728 6.50048 25.4829 6.44086 25.4966 6.43169C25.5777 6.4083 25.6605 6.39143 25.7443 6.38125L25.4875 6.41793C25.629 6.3996 25.7724 6.3996 25.9139 6.41793L25.6801 6.38583C25.7624 6.39558 25.8437 6.41245 25.9231 6.43628L26.0194 6.47296C26.1203 6.50506 25.813 6.37208 25.9369 6.44086C26.0097 6.47768 26.0802 6.51903 26.1478 6.56468C26.267 6.63805 26.0102 6.43628 26.079 6.50965L26.1662 6.59219C26.1926 6.61315 26.2157 6.63787 26.2349 6.66557C26.2991 6.73435 26.2991 6.80314 26.1983 6.61054C26.2304 6.67474 26.2762 6.73435 26.3129 6.79856C26.3909 6.93613 26.3129 6.7206 26.2808 6.71143C26.3013 6.74849 26.3153 6.78883 26.3221 6.83066C26.3496 6.90933 26.368 6.99087 26.3771 7.0737L26.345 6.83524C26.345 6.90403 26.345 6.97282 26.345 7.04619C26.3449 7.28551 26.4384 7.51539 26.6055 7.68674C26.7725 7.8581 27 7.95737 27.2392 7.96335C27.4825 7.96335 27.7158 7.86672 27.8878 7.69472C28.0598 7.52272 28.1564 7.28943 28.1564 7.04619C28.1468 6.54087 27.9832 6.05052 27.6874 5.64076C27.3915 5.23099 26.9776 4.92136 26.5009 4.75329C26.0425 4.59528 25.5475 4.57719 25.0787 4.70131C24.61 4.82543 24.1888 5.08616 23.8687 5.45033C23.5233 5.8511 23.3117 6.34969 23.2633 6.87651C23.2287 7.35818 23.3441 7.83876 23.5935 8.25225C23.8346 8.65928 24.1903 8.98626 24.6162 9.19234C25.1159 9.42389 25.6756 9.49285 26.2166 9.38953C26.7605 9.27118 27.2481 8.97175 27.5996 8.54023C27.9512 8.10871 28.1458 7.57065 28.1518 7.01409C28.1056 6.81146 27.992 6.63052 27.8295 6.50091C27.6671 6.37131 27.4654 6.30073 27.2576 6.30073C27.0497 6.30073 26.8481 6.37131 26.6856 6.50091C26.5232 6.63052 26.4095 6.81146 26.3633 7.01409V7.0416Z" fill="#1A1A1A"/>
<path d="M8.61158 11.0679H2.70966C2.59223 11.0679 2.47595 11.091 2.36745 11.1359C2.25896 11.1809 2.16038 11.2467 2.07734 11.3298C1.99431 11.4128 1.92844 11.5114 1.8835 11.6199C1.83856 11.7284 1.81543 11.8447 1.81543 11.9621C1.81543 12.0795 1.83856 12.1958 1.8835 12.3043C1.92844 12.4128 1.99431 12.5114 2.07734 12.5944C2.16038 12.6775 2.25896 12.7433 2.36745 12.7883C2.47595 12.8332 2.59223 12.8563 2.70966 12.8563H8.61158C8.84692 12.8505 9.07101 12.7544 9.23746 12.588C9.40392 12.4215 9.5 12.1974 9.50581 11.9621C9.5 11.7268 9.40392 11.5027 9.23746 11.3362C9.07101 11.1698 8.84692 11.0737 8.61158 11.0679Z" fill="#1A1A1A"/>
<path d="M25.0792 12.838H31.3113C31.5485 12.838 31.7759 12.7438 31.9436 12.5761C32.1113 12.4084 32.2055 12.1809 32.2055 11.9438C32.2055 11.7066 32.1113 11.4792 31.9436 11.3115C31.7759 11.1438 31.5485 11.0495 31.3113 11.0495H25.0792C24.9449 11.0189 24.8054 11.019 24.6711 11.0497C24.5368 11.0803 24.4111 11.1409 24.3035 11.2268C24.1958 11.3127 24.1088 11.4218 24.049 11.5459C23.9893 11.67 23.9583 11.806 23.9583 11.9438C23.9583 12.0815 23.9893 12.2175 24.049 12.3416C24.1088 12.4658 24.1958 12.5748 24.3035 12.6607C24.4111 12.7467 24.5368 12.8072 24.6711 12.8379C24.8054 12.8686 24.9449 12.8686 25.0792 12.838Z" fill="#1A1A1A"/>
<path d="M24.8912 29.8376H11.3768C10.4872 29.8376 9.58376 29.8789 8.6987 29.8376C7.43616 29.7428 6.23827 29.2417 5.28431 28.4093C4.33035 27.5768 3.67161 26.4578 3.40669 25.2197C3.2652 24.2051 3.22679 23.1788 3.29205 22.1564V11.2422C3.29205 10.3251 3.29205 9.40791 3.29205 8.51368C3.29568 7.30723 3.67155 6.1313 4.36836 5.14642C5.06516 4.16154 6.04894 3.4157 7.18539 3.01072C8.30433 2.63469 9.44619 2.68972 10.6018 2.68972H15.6875C18.7278 2.68972 21.7636 2.68972 24.7994 2.68972C25.8338 2.67811 26.853 2.93898 27.7546 3.44612C28.6561 3.95325 29.4083 4.68878 29.9355 5.57877C30.6647 6.81693 30.7289 8.12389 30.7289 9.50421V23.7936C30.7569 24.7298 30.5639 25.6595 30.1655 26.5072C29.7671 27.3549 29.1746 28.0969 28.436 28.6728C27.4122 29.4357 26.1679 29.8446 24.8912 29.8376C23.7401 29.8376 23.7355 31.6399 24.8912 31.6261C26.3389 31.612 27.7531 31.1885 28.9703 30.4046C30.1875 29.6207 31.1581 28.5084 31.7699 27.1962C32.4027 25.7838 32.4623 24.3576 32.4623 22.8489V11.7467C32.4623 10.6782 32.4623 9.6051 32.4623 8.53661C32.4605 7.2244 32.1234 5.93441 31.4829 4.78912C30.8425 3.64382 29.9199 2.68121 28.8028 1.99267C27.3262 1.10303 25.712 0.915011 24.0336 0.915011H9.29944C8.17155 0.897341 7.05346 1.12668 6.0236 1.58695C4.99374 2.04722 4.07707 2.72726 3.33791 3.57936C2.09684 5.09558 1.44541 7.00916 1.50359 8.96767V23.6743C1.44668 25.7278 2.18801 27.7233 3.57178 29.2415C4.31864 30.0203 5.21905 30.6356 6.21602 31.0485C7.21299 31.4613 8.28482 31.6627 9.36364 31.6399H24.8912C26.056 31.6399 26.0605 29.8376 24.8912 29.8376Z" fill="#1A1A1A"/>
</g>
<defs>
<clipPath id="clip0_5_1449">
<rect width="32" height="32" fill="white" transform="translate(0.5 0.109375)"/>
</clipPath>
</defs>
</svg>
