<svg width="32" height="32" viewBox="0 0 32 32" fill="none" xmlns="http://www.w3.org/2000/svg">
<path d="M28.6471 7.31101C27.0806 7.30863 25.579 6.68466 24.4722 5.57612C23.3653 4.46758 22.7436 2.96508 22.7436 1.39855C22.7436 1.16024 22.649 0.93169 22.4804 0.763179C22.3119 0.594668 22.0834 0.5 21.8451 0.5H16.9704C16.7321 0.5 16.5036 0.594668 16.3351 0.763179C16.1665 0.93169 16.0719 1.16024 16.0719 1.39855V21.3509C16.0719 22.0369 15.8685 22.7074 15.4873 23.2778C15.1062 23.8482 14.5645 24.2927 13.9308 24.5553C13.297 24.8178 12.5996 24.8865 11.9268 24.7526C11.254 24.6188 10.636 24.2885 10.1509 23.8034C9.66588 23.3183 9.33554 22.7003 9.20171 22.0275C9.06788 21.3547 9.13657 20.6573 9.39909 20.0236C9.6616 19.3898 10.1062 18.8481 10.6765 18.467C11.2469 18.0859 11.9175 17.8825 12.6035 17.8825C12.8418 17.8825 13.0703 17.7878 13.2388 17.6193C13.4074 17.4508 13.502 17.2222 13.502 16.9839V12.1093C13.502 11.871 13.4074 11.6424 13.2388 11.4739C13.0703 11.3054 12.8418 11.2107 12.6035 11.2107C10.5954 11.2089 8.63193 11.8029 6.96154 12.9174C5.29115 14.0319 3.98892 15.6169 3.21964 17.4718C2.45036 19.3267 2.24862 21.3681 2.63994 23.3376C3.03126 25.3072 3.99805 27.1164 5.41797 28.5364C6.8379 29.9563 8.64712 30.9231 10.6167 31.3144C12.5863 31.7057 14.6277 31.504 16.4825 30.7347C18.3374 29.9654 19.9224 28.6632 21.0369 26.9928C22.1514 25.3224 22.7454 23.3589 22.7436 21.3509V12.5226C24.5614 13.4871 26.5894 13.9871 28.6471 13.9783C28.8854 13.9783 29.114 13.8836 29.2825 13.7151C29.451 13.5466 29.5456 13.318 29.5456 13.0797V8.21855C29.5468 8.0998 29.5245 7.98199 29.4798 7.87193C29.4352 7.76187 29.3692 7.66176 29.2857 7.57736C29.2021 7.49297 29.1027 7.42598 28.993 7.38026C28.8834 7.33455 28.7659 7.31101 28.6471 7.31101ZM27.7485 12.1362C25.8045 11.9792 23.9403 11.2941 22.3572 10.1549C22.2225 10.0538 22.0621 9.99264 21.8943 9.97833C21.7265 9.96402 21.558 9.99716 21.4081 10.074C21.2582 10.1508 21.1329 10.2682 21.0466 10.4128C20.9602 10.5574 20.9162 10.7233 20.9196 10.8917V21.3509C20.9223 22.9615 20.4583 24.5384 19.5837 25.8908C18.7091 27.2433 17.4614 28.3133 15.9914 28.9715C14.5214 29.6297 12.8922 29.8479 11.3008 29.5996C9.70948 29.3514 8.22415 28.6473 7.02453 27.5726C5.8249 26.4979 4.96239 25.0986 4.54131 23.544C4.12024 21.9894 4.15865 20.3461 4.65189 18.8129C5.14514 17.2797 6.07209 15.9222 7.32061 14.9047C8.56913 13.8873 10.0857 13.2534 11.687 13.0797V16.1572C10.6956 16.331 9.77457 16.7842 9.03211 17.4637C8.28965 18.1431 7.75669 19.0204 7.49593 19.9925C7.23518 20.9646 7.25747 21.9909 7.5602 22.9507C7.86293 23.9105 8.4335 24.7639 9.20477 25.4104C9.97604 26.057 10.9159 26.4698 11.9138 26.6003C12.9118 26.7308 13.9262 26.5736 14.8378 26.1471C15.7494 25.7206 16.5202 25.0427 17.0596 24.193C17.599 23.3433 17.8845 22.3573 17.8825 21.3509V2.2971H20.9825C21.1916 4.01176 21.9688 5.60701 23.1903 6.82844C24.4117 8.04987 26.0069 8.82712 27.7216 9.03623L27.7485 12.1362Z" fill="#1A1A1A"/>
</svg>
