<svg width="32" height="32" viewBox="0 0 32 32" fill="none" xmlns="http://www.w3.org/2000/svg">
<path d="M30.3898 6.60687C29.3952 7.03846 28.3444 7.32683 27.2689 7.46339L27.6365 8.79779C29.0521 7.93131 30.1129 6.58903 30.6288 5.01147C30.6557 4.87768 30.6448 4.73905 30.5973 4.6111C30.5499 4.48315 30.4678 4.37092 30.3602 4.28698C30.2526 4.20304 30.1238 4.15071 29.9881 4.13583C29.8525 4.12095 29.7154 4.14412 29.5921 4.20275C28.4523 4.8689 27.2102 5.34213 25.9161 5.60332L26.6145 5.78712C25.8313 4.95676 24.8511 4.33754 23.7648 3.98681C22.6785 3.63609 21.5213 3.56522 20.4003 3.78076C19.2793 3.9963 18.2309 4.49129 17.3521 5.21985C16.4734 5.94842 15.7927 6.887 15.3732 7.94863C14.8693 9.24362 14.7669 10.6603 15.0791 12.0143L15.7702 11.11C13.4518 10.9777 11.1862 10.3646 9.11739 9.30967C7.0486 8.25471 5.22188 6.78096 3.75328 4.98207C3.67352 4.90773 3.57822 4.85207 3.47429 4.8191C3.37036 4.78614 3.26041 4.77671 3.15238 4.79149C3.04435 4.80627 2.94097 4.84489 2.84971 4.90455C2.75845 4.96422 2.68161 5.04343 2.62474 5.13646C1.77474 6.64142 1.52252 8.41124 1.91828 10.0937C2.31404 11.7762 3.32876 13.248 4.76052 14.2163L5.12812 12.8819C4.29314 12.8441 3.47752 12.6179 2.74238 12.2202C2.63324 12.1602 2.51067 12.129 2.38616 12.1294C2.26165 12.1298 2.13928 12.1618 2.03053 12.2224C1.92178 12.2831 1.8302 12.3703 1.76439 12.476C1.69858 12.5817 1.66069 12.7024 1.65427 12.8267C1.65096 14.3943 2.18466 15.9157 3.16653 17.1377C4.14839 18.3597 5.51918 19.2085 7.05069 19.5428V18.1607C6.28048 18.3637 5.47563 18.3988 4.69067 18.2636C4.19073 18.1754 3.62095 18.5834 3.80842 19.1458C4.25153 20.4944 5.10017 21.6732 6.23843 22.5213C7.37668 23.3694 8.74903 23.8454 10.168 23.8842L9.66067 22.6601C7.24788 24.4957 4.21634 25.3221 1.20579 24.965C0.470586 24.8804 0.294136 25.9502 0.838189 26.2994C3.34796 27.8723 6.1997 28.8174 9.15208 29.0548C12.1045 29.2922 15.0706 28.8148 17.7994 27.6632C22.1335 25.8252 25.4382 22.1491 27.177 17.793C28.1207 15.4327 28.5566 12.9001 28.4562 10.3601L28.0886 10.9814C29.3709 10.0473 30.4816 8.89811 31.3713 7.5847C31.8897 6.81641 30.6361 6.11428 30.1362 6.84949C29.6696 7.53276 29.1351 8.16705 28.5408 8.74265C28.2468 9.02757 27.9376 9.29632 27.6144 9.5477C27.4512 9.65396 27.2996 9.77718 27.1623 9.9153C27.0284 10.1354 26.9788 10.3966 27.0226 10.6505C27.0535 11.7765 26.966 12.9027 26.7616 14.0104C26.3451 16.234 25.5025 18.356 24.2803 20.2597C22.9444 22.3544 21.1405 24.1104 19.0105 25.3894C16.8806 26.6684 14.4828 27.4354 12.006 27.6301C8.33272 27.9335 4.66078 27.0301 1.54766 25.0569L1.18006 26.395C4.57686 26.7587 7.98138 25.7813 10.6679 23.671C11.1899 23.2667 10.7194 22.4653 10.1606 22.4469C9.05466 22.4165 7.98462 22.0478 7.09466 21.3905C6.2047 20.7332 5.5376 19.819 5.18326 18.7709L4.30101 19.6531C5.33636 19.8472 6.40167 19.8121 7.42197 19.5502C8.08733 19.3774 8.12409 18.315 7.42197 18.168C6.19395 17.9156 5.09136 17.2454 4.30183 16.2716C3.5123 15.2977 3.08462 14.0804 3.0916 12.8267L2.02187 13.448C2.98041 13.965 4.04373 14.2578 5.1318 14.3045C5.89274 14.3376 6.04345 13.3414 5.4994 12.9664C4.38669 12.1992 3.60138 11.0434 3.29796 9.72631C2.99455 8.40925 3.195 7.02632 3.85989 5.84961L2.75708 5.99297C4.35272 7.92281 6.33082 9.50119 8.56671 10.6286C10.8026 11.7561 13.2478 12.4081 15.7482 12.5437C15.8574 12.5402 15.9645 12.5124 16.0617 12.4623C16.1588 12.4122 16.2436 12.3411 16.3098 12.2541C16.376 12.1671 16.4219 12.0665 16.4444 11.9595C16.4668 11.8525 16.465 11.7419 16.4393 11.6357C16.2534 10.8047 16.2682 9.94145 16.4824 9.11735C16.6966 8.29325 17.1041 7.53204 17.6711 6.89678C18.2381 6.26152 18.9482 5.7705 19.7428 5.46437C20.5373 5.15825 21.3934 5.04584 22.2401 5.13646C23.4928 5.28778 24.6581 5.8562 25.5485 6.75024C26.1403 7.30164 27.3277 6.75024 28.0004 6.51865C28.8043 6.2327 29.5797 5.8721 30.3163 5.44157L29.2466 4.62917C28.8381 5.85426 28.0101 6.89576 26.9086 7.56999C26.3535 7.90819 26.541 8.99997 27.2762 8.90439C28.602 8.74158 29.8972 8.38745 31.1214 7.85305C31.2821 7.75385 31.3986 7.59655 31.4465 7.4138C31.4944 7.23105 31.4701 7.03687 31.3787 6.87155C31.2806 6.70758 31.1225 6.58825 30.9379 6.53884C30.7533 6.48944 30.5567 6.51384 30.3898 6.60687Z" fill="#1A1A1A"/>
</svg>
